<mxfile host="app.diagrams.net" modified="2023-09-08T15:10:01.645Z" agent="Mozilla/5.0 (Macintosh; Intel Mac OS X 10_15_7) AppleWebKit/537.36 (KHTML, like Gecko) Chrome/116.0.0.0 Safari/537.36" etag="aOXmsVFuaxbHB6zOvYND" version="21.7.3" type="github">
  <diagram name="Page-1" id="sE8mx7XUmS1CqPZCMtdX">
    <mxGraphModel dx="714" dy="636" grid="1" gridSize="10" guides="1" tooltips="1" connect="1" arrows="1" fold="1" page="1" pageScale="1" pageWidth="850" pageHeight="1100" math="0" shadow="0">
      <root>
        <mxCell id="0" />
        <mxCell id="1" parent="0" />
        <mxCell id="5Sn9MVaOLUosADGH7Xpg-7" style="edgeStyle=orthogonalEdgeStyle;rounded=0;orthogonalLoop=1;jettySize=auto;html=1;entryX=0.5;entryY=0;entryDx=0;entryDy=0;" edge="1" parent="1" source="5Sn9MVaOLUosADGH7Xpg-1" target="5Sn9MVaOLUosADGH7Xpg-6">
          <mxGeometry relative="1" as="geometry" />
        </mxCell>
        <mxCell id="5Sn9MVaOLUosADGH7Xpg-1" value="" style="ellipse;whiteSpace=wrap;html=1;" vertex="1" parent="1">
          <mxGeometry x="290" y="105" width="140" height="80" as="geometry" />
        </mxCell>
        <mxCell id="5Sn9MVaOLUosADGH7Xpg-2" value="&lt;font style=&quot;font-size: 36px;&quot; face=&quot;Times New Roman&quot;&gt;Start&lt;/font&gt;" style="text;html=1;strokeColor=none;fillColor=none;align=center;verticalAlign=middle;whiteSpace=wrap;rounded=0;" vertex="1" parent="1">
          <mxGeometry x="303.75" y="130" width="112.5" height="30" as="geometry" />
        </mxCell>
        <mxCell id="5Sn9MVaOLUosADGH7Xpg-3" value="" style="rounded=0;whiteSpace=wrap;html=1;" vertex="1" parent="1">
          <mxGeometry x="160" y="20" width="400" height="60" as="geometry" />
        </mxCell>
        <mxCell id="5Sn9MVaOLUosADGH7Xpg-4" value="&lt;font style=&quot;font-size: 18px;&quot; face=&quot;Times New Roman&quot;&gt;Hangman Game&lt;br&gt;Members: Juntian Deng&lt;/font&gt;" style="text;html=1;strokeColor=none;fillColor=none;align=center;verticalAlign=middle;whiteSpace=wrap;rounded=0;" vertex="1" parent="1">
          <mxGeometry x="160" y="20" width="400" height="60" as="geometry" />
        </mxCell>
        <mxCell id="5Sn9MVaOLUosADGH7Xpg-5" value="" style="rounded=0;whiteSpace=wrap;html=1;" vertex="1" parent="1">
          <mxGeometry x="290" y="230" width="140" height="60" as="geometry" />
        </mxCell>
        <mxCell id="5Sn9MVaOLUosADGH7Xpg-14" style="edgeStyle=orthogonalEdgeStyle;rounded=0;orthogonalLoop=1;jettySize=auto;html=1;entryX=0.5;entryY=0;entryDx=0;entryDy=0;" edge="1" parent="1" source="5Sn9MVaOLUosADGH7Xpg-6" target="5Sn9MVaOLUosADGH7Xpg-9">
          <mxGeometry relative="1" as="geometry" />
        </mxCell>
        <mxCell id="5Sn9MVaOLUosADGH7Xpg-15" style="edgeStyle=orthogonalEdgeStyle;rounded=0;orthogonalLoop=1;jettySize=auto;html=1;exitX=0.5;exitY=1;exitDx=0;exitDy=0;entryX=0.5;entryY=0;entryDx=0;entryDy=0;" edge="1" parent="1" source="5Sn9MVaOLUosADGH7Xpg-6" target="5Sn9MVaOLUosADGH7Xpg-12">
          <mxGeometry relative="1" as="geometry" />
        </mxCell>
        <mxCell id="5Sn9MVaOLUosADGH7Xpg-6" value="&lt;font style=&quot;font-size: 14px;&quot; face=&quot;Times New Roman&quot;&gt;Select random word from list&lt;/font&gt;" style="text;html=1;strokeColor=none;fillColor=none;align=center;verticalAlign=middle;whiteSpace=wrap;rounded=0;" vertex="1" parent="1">
          <mxGeometry x="290" y="230" width="140" height="60" as="geometry" />
        </mxCell>
        <mxCell id="5Sn9MVaOLUosADGH7Xpg-8" value="" style="rounded=0;whiteSpace=wrap;html=1;" vertex="1" parent="1">
          <mxGeometry x="160" y="350" width="160" height="60" as="geometry" />
        </mxCell>
        <mxCell id="5Sn9MVaOLUosADGH7Xpg-20" style="edgeStyle=orthogonalEdgeStyle;rounded=0;orthogonalLoop=1;jettySize=auto;html=1;entryX=0.5;entryY=0;entryDx=0;entryDy=0;" edge="1" parent="1" source="5Sn9MVaOLUosADGH7Xpg-9" target="5Sn9MVaOLUosADGH7Xpg-16">
          <mxGeometry relative="1" as="geometry" />
        </mxCell>
        <mxCell id="5Sn9MVaOLUosADGH7Xpg-9" value="&lt;font face=&quot;Times New Roman&quot; style=&quot;font-size: 14px;&quot;&gt;Show number of characters in word&lt;/font&gt;" style="text;html=1;strokeColor=none;fillColor=none;align=center;verticalAlign=middle;whiteSpace=wrap;rounded=0;" vertex="1" parent="1">
          <mxGeometry x="170" y="350" width="140" height="60" as="geometry" />
        </mxCell>
        <mxCell id="5Sn9MVaOLUosADGH7Xpg-17" style="edgeStyle=orthogonalEdgeStyle;rounded=0;orthogonalLoop=1;jettySize=auto;html=1;entryX=0.5;entryY=0;entryDx=0;entryDy=0;" edge="1" parent="1" source="5Sn9MVaOLUosADGH7Xpg-12" target="5Sn9MVaOLUosADGH7Xpg-16">
          <mxGeometry relative="1" as="geometry" />
        </mxCell>
        <mxCell id="5Sn9MVaOLUosADGH7Xpg-12" value="&lt;font style=&quot;font-size: 14px;&quot; face=&quot;Times New Roman&quot;&gt;Prompt user to enter a character&lt;/font&gt;" style="rounded=0;whiteSpace=wrap;html=1;" vertex="1" parent="1">
          <mxGeometry x="400" y="350" width="160" height="60" as="geometry" />
        </mxCell>
        <mxCell id="5Sn9MVaOLUosADGH7Xpg-28" style="edgeStyle=orthogonalEdgeStyle;rounded=0;orthogonalLoop=1;jettySize=auto;html=1;entryX=0.5;entryY=0;entryDx=0;entryDy=0;" edge="1" parent="1" source="5Sn9MVaOLUosADGH7Xpg-16" target="5Sn9MVaOLUosADGH7Xpg-19">
          <mxGeometry relative="1" as="geometry" />
        </mxCell>
        <mxCell id="5Sn9MVaOLUosADGH7Xpg-29" style="edgeStyle=orthogonalEdgeStyle;rounded=0;orthogonalLoop=1;jettySize=auto;html=1;exitX=0.5;exitY=1;exitDx=0;exitDy=0;entryX=0.5;entryY=0;entryDx=0;entryDy=0;" edge="1" parent="1" source="5Sn9MVaOLUosADGH7Xpg-16" target="5Sn9MVaOLUosADGH7Xpg-23">
          <mxGeometry relative="1" as="geometry" />
        </mxCell>
        <mxCell id="5Sn9MVaOLUosADGH7Xpg-30" style="edgeStyle=orthogonalEdgeStyle;rounded=0;orthogonalLoop=1;jettySize=auto;html=1;entryX=0.5;entryY=0;entryDx=0;entryDy=0;" edge="1" parent="1" source="5Sn9MVaOLUosADGH7Xpg-16" target="5Sn9MVaOLUosADGH7Xpg-22">
          <mxGeometry relative="1" as="geometry" />
        </mxCell>
        <mxCell id="5Sn9MVaOLUosADGH7Xpg-31" style="edgeStyle=orthogonalEdgeStyle;rounded=0;orthogonalLoop=1;jettySize=auto;html=1;entryX=0.5;entryY=0;entryDx=0;entryDy=0;" edge="1" parent="1" source="5Sn9MVaOLUosADGH7Xpg-16" target="5Sn9MVaOLUosADGH7Xpg-21">
          <mxGeometry relative="1" as="geometry" />
        </mxCell>
        <mxCell id="5Sn9MVaOLUosADGH7Xpg-16" value="" style="rhombus;whiteSpace=wrap;html=1;" vertex="1" parent="1">
          <mxGeometry x="290" y="470" width="140" height="140" as="geometry" />
        </mxCell>
        <mxCell id="5Sn9MVaOLUosADGH7Xpg-18" value="&lt;font style=&quot;font-size: 14px;&quot; face=&quot;Times New Roman&quot;&gt;Check to see if Letter has been guessed&lt;/font&gt;" style="text;html=1;strokeColor=none;fillColor=none;align=center;verticalAlign=middle;whiteSpace=wrap;rounded=0;" vertex="1" parent="1">
          <mxGeometry x="330" y="525" width="60" height="30" as="geometry" />
        </mxCell>
        <mxCell id="5Sn9MVaOLUosADGH7Xpg-44" style="edgeStyle=orthogonalEdgeStyle;rounded=0;orthogonalLoop=1;jettySize=auto;html=1;entryX=0.5;entryY=0;entryDx=0;entryDy=0;" edge="1" parent="1" source="5Sn9MVaOLUosADGH7Xpg-19" target="5Sn9MVaOLUosADGH7Xpg-37">
          <mxGeometry relative="1" as="geometry" />
        </mxCell>
        <mxCell id="5Sn9MVaOLUosADGH7Xpg-19" value="" style="rounded=0;whiteSpace=wrap;html=1;" vertex="1" parent="1">
          <mxGeometry x="220" y="670" width="120" height="60" as="geometry" />
        </mxCell>
        <mxCell id="5Sn9MVaOLUosADGH7Xpg-42" style="edgeStyle=orthogonalEdgeStyle;rounded=0;orthogonalLoop=1;jettySize=auto;html=1;entryX=0.5;entryY=0;entryDx=0;entryDy=0;" edge="1" parent="1" source="5Sn9MVaOLUosADGH7Xpg-21" target="5Sn9MVaOLUosADGH7Xpg-38">
          <mxGeometry relative="1" as="geometry" />
        </mxCell>
        <mxCell id="5Sn9MVaOLUosADGH7Xpg-21" value="" style="rounded=0;whiteSpace=wrap;html=1;" vertex="1" parent="1">
          <mxGeometry x="60" y="670" width="120" height="60" as="geometry" />
        </mxCell>
        <mxCell id="5Sn9MVaOLUosADGH7Xpg-48" style="edgeStyle=orthogonalEdgeStyle;rounded=0;orthogonalLoop=1;jettySize=auto;html=1;exitX=0.5;exitY=1;exitDx=0;exitDy=0;entryX=0.5;entryY=0;entryDx=0;entryDy=0;" edge="1" parent="1" source="5Sn9MVaOLUosADGH7Xpg-22" target="5Sn9MVaOLUosADGH7Xpg-34">
          <mxGeometry relative="1" as="geometry" />
        </mxCell>
        <mxCell id="5Sn9MVaOLUosADGH7Xpg-22" value="" style="rounded=0;whiteSpace=wrap;html=1;" vertex="1" parent="1">
          <mxGeometry x="540" y="670" width="120" height="60" as="geometry" />
        </mxCell>
        <mxCell id="5Sn9MVaOLUosADGH7Xpg-46" style="edgeStyle=orthogonalEdgeStyle;rounded=0;orthogonalLoop=1;jettySize=auto;html=1;exitX=0.5;exitY=1;exitDx=0;exitDy=0;entryX=0.5;entryY=0;entryDx=0;entryDy=0;" edge="1" parent="1" source="5Sn9MVaOLUosADGH7Xpg-23" target="5Sn9MVaOLUosADGH7Xpg-36">
          <mxGeometry relative="1" as="geometry" />
        </mxCell>
        <mxCell id="5Sn9MVaOLUosADGH7Xpg-23" value="" style="rounded=0;whiteSpace=wrap;html=1;" vertex="1" parent="1">
          <mxGeometry x="380" y="670" width="120" height="60" as="geometry" />
        </mxCell>
        <mxCell id="5Sn9MVaOLUosADGH7Xpg-24" value="&lt;font face=&quot;Times New Roman&quot; style=&quot;font-size: 14px;&quot;&gt;Check for Letter in word&lt;/font&gt;" style="text;html=1;strokeColor=none;fillColor=none;align=center;verticalAlign=middle;whiteSpace=wrap;rounded=0;" vertex="1" parent="1">
          <mxGeometry x="90" y="685" width="60" height="30" as="geometry" />
        </mxCell>
        <mxCell id="5Sn9MVaOLUosADGH7Xpg-25" value="&lt;font face=&quot;Times New Roman&quot; style=&quot;font-size: 14px;&quot;&gt;Check for Letter not in&amp;nbsp; the word&lt;/font&gt;" style="text;html=1;strokeColor=none;fillColor=none;align=center;verticalAlign=middle;whiteSpace=wrap;rounded=0;" vertex="1" parent="1">
          <mxGeometry x="245" y="685" width="70" height="30" as="geometry" />
        </mxCell>
        <mxCell id="5Sn9MVaOLUosADGH7Xpg-26" value="&lt;font style=&quot;font-size: 14px;&quot; face=&quot;Times New Roman&quot;&gt;Check for number of guesses expired&lt;/font&gt;" style="text;html=1;strokeColor=none;fillColor=none;align=center;verticalAlign=middle;whiteSpace=wrap;rounded=0;" vertex="1" parent="1">
          <mxGeometry x="390" y="685" width="100" height="30" as="geometry" />
        </mxCell>
        <mxCell id="5Sn9MVaOLUosADGH7Xpg-27" value="&lt;font style=&quot;font-size: 14px;&quot; face=&quot;Times New Roman&quot;&gt;Check for if all characters guessed&lt;/font&gt;" style="text;html=1;strokeColor=none;fillColor=none;align=center;verticalAlign=middle;whiteSpace=wrap;rounded=0;" vertex="1" parent="1">
          <mxGeometry x="555" y="685" width="90" height="30" as="geometry" />
        </mxCell>
        <mxCell id="5Sn9MVaOLUosADGH7Xpg-34" value="" style="shape=parallelogram;perimeter=parallelogramPerimeter;whiteSpace=wrap;html=1;fixedSize=1;" vertex="1" parent="1">
          <mxGeometry x="540" y="760" width="120" height="60" as="geometry" />
        </mxCell>
        <mxCell id="5Sn9MVaOLUosADGH7Xpg-35" value="&lt;font face=&quot;Times New Roman&quot; style=&quot;font-size: 14px;&quot;&gt;User Wins&lt;/font&gt;" style="text;html=1;strokeColor=none;fillColor=none;align=center;verticalAlign=middle;whiteSpace=wrap;rounded=0;" vertex="1" parent="1">
          <mxGeometry x="570" y="770" width="60" height="30" as="geometry" />
        </mxCell>
        <mxCell id="5Sn9MVaOLUosADGH7Xpg-36" value="" style="shape=parallelogram;perimeter=parallelogramPerimeter;whiteSpace=wrap;html=1;fixedSize=1;" vertex="1" parent="1">
          <mxGeometry x="380" y="760" width="120" height="60" as="geometry" />
        </mxCell>
        <mxCell id="5Sn9MVaOLUosADGH7Xpg-37" value="" style="shape=parallelogram;perimeter=parallelogramPerimeter;whiteSpace=wrap;html=1;fixedSize=1;" vertex="1" parent="1">
          <mxGeometry x="220" y="760" width="120" height="60" as="geometry" />
        </mxCell>
        <mxCell id="5Sn9MVaOLUosADGH7Xpg-38" value="" style="shape=parallelogram;perimeter=parallelogramPerimeter;whiteSpace=wrap;html=1;fixedSize=1;" vertex="1" parent="1">
          <mxGeometry x="60" y="760" width="120" height="60" as="geometry" />
        </mxCell>
        <mxCell id="5Sn9MVaOLUosADGH7Xpg-39" value="&lt;font face=&quot;Times New Roman&quot; style=&quot;font-size: 14px;&quot;&gt;User Loses&lt;/font&gt;" style="text;html=1;strokeColor=none;fillColor=none;align=center;verticalAlign=middle;whiteSpace=wrap;rounded=0;" vertex="1" parent="1">
          <mxGeometry x="410" y="775" width="60" height="30" as="geometry" />
        </mxCell>
        <mxCell id="5Sn9MVaOLUosADGH7Xpg-40" value="&lt;font face=&quot;Times New Roman&quot;&gt;&lt;span style=&quot;font-size: 14px;&quot;&gt;Number of guesses increment&lt;/span&gt;&lt;/font&gt;" style="text;html=1;strokeColor=none;fillColor=none;align=center;verticalAlign=middle;whiteSpace=wrap;rounded=0;" vertex="1" parent="1">
          <mxGeometry x="250" y="775" width="60" height="30" as="geometry" />
        </mxCell>
        <mxCell id="5Sn9MVaOLUosADGH7Xpg-41" value="&lt;font face=&quot;Times New Roman&quot;&gt;&lt;span style=&quot;font-size: 14px;&quot;&gt;Displays character in correct position&lt;/span&gt;&lt;/font&gt;" style="text;html=1;strokeColor=none;fillColor=none;align=center;verticalAlign=middle;whiteSpace=wrap;rounded=0;" vertex="1" parent="1">
          <mxGeometry x="75" y="770" width="90" height="30" as="geometry" />
        </mxCell>
        <mxCell id="5Sn9MVaOLUosADGH7Xpg-61" style="edgeStyle=orthogonalEdgeStyle;rounded=0;orthogonalLoop=1;jettySize=auto;html=1;entryX=0.5;entryY=0;entryDx=0;entryDy=0;" edge="1" parent="1" source="5Sn9MVaOLUosADGH7Xpg-49" target="5Sn9MVaOLUosADGH7Xpg-54">
          <mxGeometry relative="1" as="geometry" />
        </mxCell>
        <mxCell id="5Sn9MVaOLUosADGH7Xpg-62" style="edgeStyle=orthogonalEdgeStyle;rounded=0;orthogonalLoop=1;jettySize=auto;html=1;entryX=0.5;entryY=0;entryDx=0;entryDy=0;" edge="1" parent="1" source="5Sn9MVaOLUosADGH7Xpg-49" target="5Sn9MVaOLUosADGH7Xpg-55">
          <mxGeometry relative="1" as="geometry" />
        </mxCell>
        <mxCell id="5Sn9MVaOLUosADGH7Xpg-49" value="" style="rounded=0;whiteSpace=wrap;html=1;" vertex="1" parent="1">
          <mxGeometry x="303.75" y="860" width="120" height="60" as="geometry" />
        </mxCell>
        <mxCell id="5Sn9MVaOLUosADGH7Xpg-52" value="&lt;font face=&quot;Times New Roman&quot; style=&quot;font-size: 14px;&quot;&gt;Prompt User to Play again&lt;/font&gt;" style="text;html=1;strokeColor=none;fillColor=none;align=center;verticalAlign=middle;whiteSpace=wrap;rounded=0;" vertex="1" parent="1">
          <mxGeometry x="316.25" y="875" width="100" height="30" as="geometry" />
        </mxCell>
        <mxCell id="5Sn9MVaOLUosADGH7Xpg-66" style="edgeStyle=orthogonalEdgeStyle;rounded=0;orthogonalLoop=1;jettySize=auto;html=1;entryX=0;entryY=0.5;entryDx=0;entryDy=0;" edge="1" parent="1" source="5Sn9MVaOLUosADGH7Xpg-54" target="5Sn9MVaOLUosADGH7Xpg-1">
          <mxGeometry relative="1" as="geometry">
            <mxPoint x="30" y="120" as="targetPoint" />
            <Array as="points">
              <mxPoint x="31" y="995" />
              <mxPoint x="31" y="145" />
            </Array>
          </mxGeometry>
        </mxCell>
        <mxCell id="5Sn9MVaOLUosADGH7Xpg-54" value="" style="shape=parallelogram;perimeter=parallelogramPerimeter;whiteSpace=wrap;html=1;fixedSize=1;" vertex="1" parent="1">
          <mxGeometry x="210" y="965" width="120" height="60" as="geometry" />
        </mxCell>
        <mxCell id="5Sn9MVaOLUosADGH7Xpg-65" style="edgeStyle=orthogonalEdgeStyle;rounded=0;orthogonalLoop=1;jettySize=auto;html=1;entryX=1;entryY=0.5;entryDx=0;entryDy=0;" edge="1" parent="1" source="5Sn9MVaOLUosADGH7Xpg-55" target="5Sn9MVaOLUosADGH7Xpg-63">
          <mxGeometry relative="1" as="geometry">
            <mxPoint x="450" y="1070" as="targetPoint" />
          </mxGeometry>
        </mxCell>
        <mxCell id="5Sn9MVaOLUosADGH7Xpg-55" value="" style="shape=parallelogram;perimeter=parallelogramPerimeter;whiteSpace=wrap;html=1;fixedSize=1;" vertex="1" parent="1">
          <mxGeometry x="390" y="965" width="120" height="60" as="geometry" />
        </mxCell>
        <mxCell id="5Sn9MVaOLUosADGH7Xpg-56" value="&lt;font style=&quot;font-size: 36px;&quot; face=&quot;Times New Roman&quot;&gt;Yes&lt;/font&gt;" style="text;html=1;strokeColor=none;fillColor=none;align=center;verticalAlign=middle;whiteSpace=wrap;rounded=0;" vertex="1" parent="1">
          <mxGeometry x="240" y="980" width="60" height="30" as="geometry" />
        </mxCell>
        <mxCell id="5Sn9MVaOLUosADGH7Xpg-57" value="&lt;font style=&quot;font-size: 36px;&quot; face=&quot;Times New Roman&quot;&gt;No&lt;/font&gt;" style="text;html=1;strokeColor=none;fillColor=none;align=center;verticalAlign=middle;whiteSpace=wrap;rounded=0;" vertex="1" parent="1">
          <mxGeometry x="420" y="980" width="60" height="30" as="geometry" />
        </mxCell>
        <mxCell id="5Sn9MVaOLUosADGH7Xpg-63" value="" style="ellipse;whiteSpace=wrap;html=1;" vertex="1" parent="1">
          <mxGeometry x="310" y="1040" width="96.25" height="55" as="geometry" />
        </mxCell>
        <mxCell id="5Sn9MVaOLUosADGH7Xpg-64" value="&lt;font style=&quot;font-size: 14px;&quot; face=&quot;Times New Roman&quot;&gt;End Game&lt;/font&gt;" style="text;html=1;strokeColor=none;fillColor=none;align=center;verticalAlign=middle;whiteSpace=wrap;rounded=0;" vertex="1" parent="1">
          <mxGeometry x="316.25" y="1052.5" width="78.13" height="30" as="geometry" />
        </mxCell>
      </root>
    </mxGraphModel>
  </diagram>
</mxfile>
